<?xml version="1.0" encoding="UTF-8" standalone="no"?>
<svg
   xmlns:dc="http://purl.org/dc/elements/1.1/"
   xmlns:cc="http://creativecommons.org/ns#"
   xmlns:rdf="http://www.w3.org/1999/02/22-rdf-syntax-ns#"
   xmlns:svg="http://www.w3.org/2000/svg"
   xmlns="http://www.w3.org/2000/svg"
   xmlns:sodipodi="http://sodipodi.sourceforge.net/DTD/sodipodi-0.dtd"
   xmlns:inkscape="http://www.inkscape.org/namespaces/inkscape"
   width="73.4375pt"
   height="37.621098pt"
   viewBox="0 0 73.4375 37.621098"
   version="1.1"
   id="svg2"
   inkscape:version="0.91 r13725"
   sodipodi:docname="Ecole Centrale Supelec logo.svg">
  <metadata
     id="metadata9456">
    <rdf:RDF>
      <cc:Work
         rdf:about="">
        <dc:format>image/svg+xml</dc:format>
        <dc:type
           rdf:resource="http://purl.org/dc/dcmitype/StillImage" />
        <dc:title />
      </cc:Work>
    </rdf:RDF>
  </metadata>
  <sodipodi:namedview
     pagecolor="#ffffff"
     bordercolor="#666666"
     borderopacity="1"
     objecttolerance="10"
     gridtolerance="10"
     guidetolerance="10"
     inkscape:pageopacity="0"
     inkscape:pageshadow="2"
     inkscape:window-width="1280"
     inkscape:window-height="738"
     id="namedview9454"
     showgrid="false"
     fit-margin-top="0"
     fit-margin-left="0"
     fit-margin-right="0"
     fit-margin-bottom="0"
     inkscape:zoom="8"
     inkscape:cx="52.350262"
     inkscape:cy="24.44117"
     inkscape:window-x="-8"
     inkscape:window-y="-8"
     inkscape:window-maximized="1"
     inkscape:current-layer="svg2" />
  <defs
     id="defs4" />
  <path
     inkscape:connector-curvature="0"
     id="path1006"
     d="M 42.742187,15.99609 C 42.175781,14.8125 40.699218,14.34375 39.4375,14.94922 c -1.261719,0.60156 -2.175782,2.21484 -1.613282,3.39453 0.5625,1.17969 2.386719,1.48437 3.648438,0.8789 1.261719,-0.60156 1.828125,-2.04687 1.269531,-3.22656"
     style="fill:#7b2e3e;fill-opacity:1;fill-rule:nonzero;stroke:none" />
  <path
     inkscape:connector-curvature="0"
     id="path1008"
     d="M 48.238281,13.3789 C 46.753906,10.27734 43.660156,8.45703 40.4375,8.45703 c -1.246094,0 -2.519532,0.27344 -3.714844,0.84375 -1.191406,0.57031 -2.203125,1.38281 -2.984375,2.35156 l 3,2.4336 c 0.429687,-0.53516 0.980469,-0.97657 1.648437,-1.29688 0.667969,-0.31641 1.363282,-0.46484 2.046875,-0.46484 1.789063,0 3.5,1 4.316407,2.71875 0.316406,0.66797 0.464843,1.35937 0.464843,2.05078 0,1.78515 -1,3.49219 -2.71875,4.3125 -0.65625,0.3125 -1.332031,0.45703 -2.007812,0.46484 l 0,3.86328 c 1.234375,-0.004 2.492187,-0.27734 3.671875,-0.84375 3.101562,-1.48047 4.921875,-4.57422 4.917969,-7.79687 0,-1.2461 -0.273438,-2.51953 -0.839844,-3.71485"
     style="fill:#7b2e3e;fill-opacity:1;fill-rule:nonzero;stroke:none" />
  <path
     inkscape:connector-curvature="0"
     id="path1010"
     d="M 32.636718,7.35547 C 32.074218,6.17578 30.25,5.87109 28.988281,6.47265 c -1.261719,0.60547 -1.828125,2.05079 -1.265625,3.23047 0.5625,1.17969 2.039062,1.64844 3.300781,1.04688 1.261719,-0.60547 2.175781,-2.21485 1.613281,-3.39453"
     style="fill:#706a7f;fill-opacity:1;fill-rule:nonzero;stroke:none" />
  <path
     inkscape:connector-curvature="0"
     id="path1012"
     d="m 33.742187,11.64844 c -0.433594,0.53515 -0.984375,0.98046 -1.652344,1.29687 -0.667968,0.32031 -1.363281,0.46875 -2.050781,0.46875 -1.785156,-0.004 -3.492187,-1.00391 -4.3125,-2.71875 -0.316406,-0.67187 -0.464844,-1.36328 -0.464844,-2.05078 0,-1.78516 1,-3.49609 2.71875,-4.3125 0.65625,-0.3125 1.335938,-0.46094 2.015625,-0.46875 L 29.992193,0 c -1.234375,0.004 -2.492187,0.28125 -3.671875,0.84375 -3.105469,1.48047 -4.925781,4.57812 -4.921875,7.80078 0,1.24609 0.273438,2.51562 0.84375,3.71094 1.480469,3.10156 4.570313,4.92187 7.792969,4.92187 l 0.0039,0 c 1.25,0 2.519531,-0.27344 3.714844,-0.84375 1.191406,-0.57031 2.203125,-1.38281 2.988281,-2.35156 z"
     style="fill:#706a7f;fill-opacity:1;fill-rule:nonzero;stroke:none" />
  <path
     inkscape:connector-curvature="0"
     id="path1014"
     d="m 8.589843,31.44922 c -1.113281,0 -1.972656,1.02343 -1.972656,2.21484 0,1.19531 0.859375,2.21484 1.972656,2.21484 0.957032,0 1.453125,-0.39453 1.855469,-0.98437 L 10.230468,34.75 c -0.339843,0.45703 -0.746093,0.82422 -1.34375,0.82422 -0.773437,0 -1.300781,-0.69922 -1.300781,-1.9375 l 2.902344,0 c 0,-1.44922 -0.851563,-2.1875 -1.898438,-2.1875 m -1.003906,1.88281 c 0,-0.64453 0.125,-1.57422 0.984375,-1.57422 0.878906,0 1.003906,0.92969 1.003906,1.57422 z"
     style="fill:#151515;fill-opacity:1;fill-rule:nonzero;stroke:none" />
  <path
     inkscape:connector-curvature="0"
     id="path1016"
     d="m 14.414062,31.44922 c -0.617187,0 -1.046875,0.33984 -1.371094,0.89843 l -0.01953,0 0,-0.84375 -1.40625,0.0547 0,0.30469 c 0.476563,0 0.636719,0.0898 0.636719,0.375 l -0.0039,3.53125 0.847656,0 0,-2.44531 c 0,-0.67969 0.429687,-1.51563 1.09375,-1.51563 0.332031,0 0.714844,0.1875 0.714844,0.96875 l 0,2.99219 0.84375,0 0,-2.67969 c 0,-1.30859 -0.699219,-1.64062 -1.335938,-1.64062"
     style="fill:#151515;fill-opacity:1;fill-rule:nonzero;stroke:none" />
  <path
     inkscape:connector-curvature="0"
     id="path1018"
     d="m 19.871093,34.60547 c 0,0.71875 -0.304687,0.96875 -0.652343,0.96875 -0.261719,0 -0.492188,-0.0898 -0.492188,-0.46875 l 0,-3.24219 1.246094,0 0,-0.30469 -1.246094,0 0,-1.39844 -0.324219,0 c -0.234375,1.09375 -0.339843,1.32813 -1.175781,1.39844 l 0,0.30469 0.65625,0 0,2.92187 c 0,0.88672 0.484375,1.09375 1.113281,1.09375 0.886719,0 1.128907,-0.5 1.128907,-1.30859 l 0,-0.15234 -0.253907,0 z"
     style="fill:#151515;fill-opacity:1;fill-rule:nonzero;stroke:none" />
  <path
     inkscape:connector-curvature="0"
     id="path1020"
     d="m 23.746093,31.44922 c -0.746093,0 -1.042968,0.55859 -1.230468,1.27343 l -0.01563,0 0,-1.21875 -1.425782,0.0547 0,0.30469 c 0.484375,0 0.644532,0.0898 0.644532,0.375 l 0,3.53125 0.839843,0 c 0,0 0.0039,-0.46485 0.0039,-1.20703 0,-1.70703 0.445312,-2.80469 1.046875,-2.80469 l 0.117187,0.0156 c -0.125,0.082 -0.1875,0.20704 -0.1875,0.34766 0,0.25 0.152344,0.42188 0.4375,0.42188 0.277344,0 0.476563,-0.23047 0.476563,-0.47266 0,-0.26953 -0.214844,-0.62109 -0.707032,-0.62109"
     style="fill:#151515;fill-opacity:1;fill-rule:nonzero;stroke:none" />
  <path
     inkscape:connector-curvature="0"
     id="path1022"
     d="m 29.121093,35.35937 c -0.167968,0 -0.277343,-0.0547 -0.277343,-0.5039 l 0,-2.16797 c 0,-0.94922 -0.570313,-1.23828 -1.738282,-1.23828 -0.816406,0 -1.523437,0.46093 -1.523437,1.0039 0,0.26953 0.214844,0.52344 0.519531,0.52344 0.304688,0 0.519531,-0.25391 0.519531,-0.52344 0,-0.25 -0.144531,-0.42969 -0.386718,-0.47265 0.269531,-0.17188 0.53125,-0.22266 0.84375,-0.22266 0.339843,0 0.925781,0.10547 0.925781,0.55469 l 0,0.83203 c -0.765625,0.26172 -2.65625,0.67578 -2.65625,1.70312 0,0.69922 0.628906,1.03125 1.265625,1.03125 0.664062,0 1.191406,-0.19531 1.441406,-0.85937 l 0.01953,0 c 0.07031,0.46484 0.199219,0.80469 0.726563,0.80469 0.636719,0 0.921875,-0.51172 0.921875,-1.09375 l -0.25,0 c 0,0.21484 -0.0625,0.6289 -0.351563,0.6289 m -1.117187,-1.14844 c 0,0.76172 -0.496094,1.29297 -1.058594,1.29297 -0.421875,0 -0.628906,-0.28906 -0.628906,-0.6914 0,-0.78125 1.058594,-1.22657 1.6875,-1.38282 z"
     style="fill:#151515;fill-opacity:1;fill-rule:nonzero;stroke:none" />
  <path
     inkscape:connector-curvature="0"
     id="path1024"
     d="m 35.550781,31.44922 c -1.109375,0 -1.96875,1.02343 -1.96875,2.21484 0,1.19531 0.859375,2.21484 1.96875,2.21484 0.960937,0 1.453125,-0.39453 1.855469,-0.98437 L 37.191406,34.75 c -0.339844,0.45703 -0.742188,0.82422 -1.34375,0.82422 -0.769531,0 -1.300781,-0.69922 -1.300781,-1.9375 l 2.90625,0 c 0,-1.44922 -0.851563,-2.1875 -1.902344,-2.1875 m -1.003906,1.88281 c 0,-0.64453 0.128906,-1.57422 0.988281,-1.57422 0.878906,0 1.003906,0.92969 1.003906,1.57422 z"
     style="fill:#151515;fill-opacity:1;fill-rule:nonzero;stroke:none" />
  <path
     inkscape:connector-curvature="0"
     id="path1026"
     d="m 47.1875,31.55859 0,0.30469 c 0.539062,0 0.699218,0.0898 0.699218,0.375 l 0,2.00781 c -0.07813,0.59375 -0.402343,1.27344 -1.136718,1.27344 -0.476563,0 -0.671875,-0.35547 -0.671875,-0.85938 l 0,-3.10156 -1.480469,0 0,0.30469 c 0.476562,0 0.636719,0.0898 0.636719,0.375 l 0,2.02734 c 0,1.0586 0.527343,1.61328 1.335937,1.61328 0.617188,0 1.046875,-0.33984 1.371094,-0.89453 l 0.01953,0 0,0.78516 0.769531,0 0,-4.21094 z"
     style="fill:#151515;fill-opacity:1;fill-rule:nonzero;stroke:none" />
  <path
     inkscape:connector-curvature="0"
     id="path1028"
     d="m 39.738281,30.89062 c 0,-0.71484 0.511719,-1.08594 1.195312,-1.08594 1.039063,0 1.546875,0.9961 1.78125,1.88282 l 0.25,0 0,-2.07813 -0.304687,0 c -0.02734,0.0898 -0.140625,0.41016 -0.277344,0.41016 -0.214844,0 -0.644531,-0.51953 -1.460937,-0.51953 -0.957032,0 -1.917969,0.6289 -1.917969,1.70312 0,2.38672 3.585937,1.19531 3.585937,3.21094 0,0.72656 -0.65625,1.17187 -1.445312,1.17187 -1.226563,0 -1.78125,-0.69921 -1.980469,-1.65234 l -0.269531,0 c 0.195312,1.16016 0.902344,1.94922 2.292969,1.94922 1.183593,-0.004 2.136718,-0.75781 2.136718,-2 0,-2.20313 -3.585937,-1.28125 -3.585937,-2.99219"
     style="fill:#151515;fill-opacity:1;fill-rule:nonzero;stroke:none" />
  <path
     inkscape:connector-curvature="0"
     id="path1030"
     d="m 52.90625,31.44922 c -0.714844,0 -1.039063,0.43359 -1.261719,0.93359 l -0.01953,0 0,-0.82422 -1.453125,0.0547 0,0.30469 c 0.519531,0 0.683593,0.0898 0.683593,0.375 l 0,5.32812 0.84375,0 -0.0039,-2.46875 0.01953,0 c 0.269532,0.51172 0.5625,0.72656 1.199219,0.72656 1.078125,0 1.882813,-1.07422 1.882813,-2.26172 0,-1.11718 -0.839844,-2.16796 -1.890625,-2.16796 m -0.1875,4.125 c -0.296875,0 -1.023438,-0.27735 -1.023438,-1.64063 l 0,-0.24219 c 0,-1.1289 0.414063,-1.93359 1.09375,-1.93359 0.773438,0 1.097656,0.80469 1.097656,1.93359 0,1.32813 -0.324218,1.88282 -1.167968,1.88282"
     style="fill:#151515;fill-opacity:1;fill-rule:nonzero;stroke:none" />
  <path
     inkscape:connector-curvature="0"
     id="path1032"
     d="m 59.304687,30.07031 c 0.164063,-0.0977 0.269531,-0.24219 0.269531,-0.36719 0,-0.17187 -0.08984,-0.29687 -0.304687,-0.29687 -0.167969,0 -0.277344,0.0898 -0.386719,0.20703 l -1.316406,1.33594 0.359375,0 z"
     style="fill:#151515;fill-opacity:1;fill-rule:nonzero;stroke:none" />
  <path
     inkscape:connector-curvature="0"
     id="path1034"
     d="m 58.167968,31.44922 c -1.113281,0 -1.972656,1.02343 -1.972656,2.21484 0,1.19531 0.859375,2.21484 1.972656,2.21484 0.957032,0 1.453125,-0.39453 1.855469,-0.98437 L 59.808593,34.75 c -0.339843,0.45703 -0.742187,0.82422 -1.347656,0.82422 -0.765625,0 -1.296875,-0.69922 -1.296875,-1.9375 l 2.902344,0 c 0,-1.44922 -0.847656,-2.1875 -1.898438,-2.1875 m -1.003906,1.88281 c 0,-0.64453 0.125,-1.57422 0.984375,-1.57422 0.878906,0 1.003906,0.92969 1.003906,1.57422 z"
     style="fill:#151515;fill-opacity:1;fill-rule:nonzero;stroke:none" />
  <path
     inkscape:connector-curvature="0"
     id="path1036"
     d="m 61.234375,30.28515 c 0.519531,0 0.679687,0.0898 0.679687,0.375 l -0.0039,5.10938 0.847656,0 0,-5.84375 -1.523437,0.0547 z"
     style="fill:#151515;fill-opacity:1;fill-rule:nonzero;stroke:none" />
  <path
     inkscape:connector-curvature="0"
     id="path1038"
     d="m 73.214843,34.74609 c -0.316406,0.46484 -0.71875,0.82422 -1.363281,0.82422 -0.960937,0 -1.371094,-0.88672 -1.371094,-2.00781 0,-1.13672 0.546875,-1.8086 1.289063,-1.8086 0.992187,0 0.5,1.08594 1.128906,1.08594 0.257813,0 0.484375,-0.1875 0.484375,-0.44922 0,-0.59765 -0.84375,-0.94531 -1.53125,-0.94531 -1.203125,0 -2.339844,0.93359 -2.339844,2.21484 0,1.28125 0.941407,2.21485 2.167969,2.21485 0.835938,0 1.390625,-0.39453 1.757813,-1.02344 z"
     style="fill:#151515;fill-opacity:1;fill-rule:nonzero;stroke:none" />
  <path
     inkscape:connector-curvature="0"
     id="path1040"
     d="m 30.464843,30.28515 c 0.519532,0 0.679688,0.0898 0.679688,0.375 l 0.0039,5.10938 0.835938,0 0.0039,-5.84375 -1.523438,0.0547 z"
     style="fill:#151515;fill-opacity:1;fill-rule:nonzero;stroke:none" />
  <path
     inkscape:connector-curvature="0"
     id="path1042"
     d="m 66.277343,31.44922 c -1.109375,0 -1.972656,1.02343 -1.972656,2.21484 0,1.19531 0.863281,2.21484 1.972656,2.21484 0.960938,0 1.453125,-0.39453 1.855469,-0.98437 L 67.917968,34.75 c -0.339843,0.45703 -0.742187,0.82422 -1.34375,0.82422 -0.769531,0 -1.300781,-0.69922 -1.300781,-1.9375 l 2.90625,0 c 0,-1.44922 -0.851562,-2.1875 -1.902344,-2.1875 m -1.003906,1.88281 c 0,-0.64453 0.128906,-1.57422 0.988281,-1.57422 0.875,0 1.003907,0.92969 1.003907,1.57422 z"
     style="fill:#151515;fill-opacity:1;fill-rule:nonzero;stroke:none" />
  <path
     inkscape:connector-curvature="0"
     id="path1044"
     d="m 2.898437,35.57422 c -0.78125,0 -1.855469,-0.73438 -1.855469,-2.88672 0,-1.94532 0.589844,-2.88672 1.882813,-2.88672 1.144531,0 1.566406,0.97656 1.84375,1.97265 l 0.246094,0 0,-2.11718 -0.21875,0 C 4.746095,29.82031 4.59375,30 4.429687,30 4.277343,30 3.632812,29.49609 2.835937,29.49609 1.203125,29.49609 0,31.02734 0,32.6875 c 0,1.66015 1.203125,3.1914 2.738281,3.1914 1.488281,0 2.207031,-0.75781 2.410156,-1.94922 l -0.269531,0 C 4.675781,34.8789 4.121093,35.57422 2.898437,35.57422"
     style="fill:#151515;fill-opacity:1;fill-rule:nonzero;stroke:none" />
</svg>
