<?xml version="1.0"?>
<svg width="100%" height="100%" viewBox="0 0 24 24" version="1.1" xmlns="http://www.w3.org/2000/svg" xmlns:xlink="http://www.w3.org/1999/xlink" xml:space="preserve" style="fill-rule:evenodd;clip-rule:evenodd;stroke-linejoin:round;stroke-miterlimit:2;">
    <path d="M19.92,3.145C17.496,1.179 15.098,-0.011 11.989,0C9.855,0.008 7.531,0.745 5.562,1.842C5.562,1.847 5.562,1.844 5.562,1.844C5.669,2.332 5.981,3.499 6.132,4.003C7.951,2.854 9.588,2.149 11.829,2.141C14.237,2.134 16.635,3.058 18.395,4.715" style="fill:rgb(49,66,77);fill-rule:nonzero;"></path>
    <path d="M20.261,3.473L20.262,3.474C19.987,3.752 19.064,4.732 18.769,5.011C20.796,6.824 21.774,9.214 21.804,11.873C21.838,14.783 20.758,17.234 18.655,19.026C18.928,19.288 19.854,20.232 20.197,20.599C20.201,20.604 20.197,20.601 20.199,20.605C22.313,18.382 23.878,15.196 23.862,11.881C23.847,8.548 22.382,5.666 20.261,3.473Z" style="fill:rgb(49,66,77);fill-rule:nonzero;"></path>
    <path d="M19.814,20.951C19.174,20.311 18.457,19.575 18.238,19.378C16.256,20.859 14.336,21.682 12.011,21.757C6.765,21.926 1.999,17.282 1.985,11.887C1.976,8.639 3.453,6.262 5.709,4.312C5.689,3.586 5.529,2.696 5.343,2.041C2.162,4.337 -0.012,7.752 0,11.896C0.018,18.222 5.368,24.091 11.907,23.999C15.098,23.954 17.853,22.508 19.814,20.951C19.815,20.952 19.814,20.951 19.814,20.951Z" style="fill:rgb(49,66,77);fill-rule:nonzero;"></path>
    <path d="M12.745,5.688C15.474,7.121 19.868,10.164 17.552,14.21C17.542,14.229 15.631,15.997 13.356,16.741C12.4,17.198 9.012,17.925 9.1,17.823C10.825,15.824 10.769,14.101 10.764,13.812C10.682,9.362 8.161,5.406 8.13,5.424C7.787,5.614 6.598,6.264 6.598,6.264C7.736,10.817 7.672,15.87 7.603,16.555C7.554,17.046 7.282,17.774 7.282,17.774C7.319,17.827 7.377,17.884 7.461,17.882C8.197,18.46 10.129,19.615 12.471,19.332C13.667,19.188 16.035,18.586 18.049,16.196C18.428,15.766 20.37,13.286 19.126,9.829C17.52,5.368 12.983,3.598 9.996,4.565C9.996,4.565 9.998,4.56 9.995,4.563C10.621,4.718 12.115,5.343 12.744,5.688L12.745,5.688Z" style="fill:rgb(49,66,77);fill-rule:nonzero;"></path>
    <path d="M6.364,17.008C6.45,16.985 6.498,16.992 6.493,16.84C6.486,16.6 6.558,15.327 6.603,14.401C6.632,13.792 6.564,11.387 6.552,11.16C6.506,10.322 6.461,9.214 6.384,8.482C6.237,6.765 6.247,6.709 6.247,6.709C6.079,6.653 5.915,6.823 5.881,6.866C5.657,7.156 5.357,7.521 5.002,8.228C4.291,9.621 3.925,11.512 4.22,12.999C4.254,13.172 4.451,15.117 6.348,17.007" style="fill:rgb(49,66,77);fill-rule:nonzero;"></path>
</svg>